<svg version="1" xmlns="http://www.w3.org/2000/svg" width="346.667" height="346.667" viewBox="0 0 260.000000 260.000000"><path d="M219.5 11.3c-3.8 1.9-15 12.5-48 45.6l-43 43.1-44-43.9-44-43.9-5.6-1.2C16.8 7.4 1.7 25.1 8.5 41.8c1.1 2.5 15.2 17.3 44.8 46.9L96.5 132l-43.7 43.7c-29.8 29.9-44.2 45-45.3 47.5-3.4 8.3-1.1 20.2 5.1 26 6.2 5.8 18.5 7.8 25.6 4.3 1.8-1 23-21.3 47.1-45.3l43.7-43.7 43.8 43.7c24 24 45.2 44.4 47.1 45.3 4.2 2.1 13.4 2.2 18.1.3 11.6-4.9 17.2-18.7 12.4-30.4-1.1-2.8-14.1-16.5-45.2-47.7L161.5 132l43.7-43.8c30-29.9 44.2-44.9 45.3-47.4 3.3-8.1 1.1-19-5.1-25.1-4.3-4.3-8.1-5.9-14.9-6.4-4.9-.3-6.9 0-11 2zM73.3 74.4c.7 1.6-.1 2.6-2 2.6-.7 0-1.3-.9-1.3-2 0-2.3 2.5-2.7 3.3-.6zm114.7 0c0 2-1.9 3.1-3.2 1.8-.6-.6-.7-1.5-.4-2.1 1-1.6 3.6-1.3 3.6.3zM80 78.5c2 2.5.8 5-2.5 5-3.1 0-4.3-2-3.1-5.1.7-1.8 4-1.8 5.6.1zm102.8-.6c.8.4 1.2 1.9 1 3.2-.2 1.9-.9 2.4-3.3 2.4-3.3 0-4.5-2.5-2.5-5 1.4-1.7 2.9-1.9 4.8-.6zM89 85c2.4 2.4 2.5 4.7.3 7.2-2 2.2-5.1 2.3-7.5.1-2.5-2.2-2.3-5.9.4-7.7 3-2.1 4.4-2 6.8.4zm87 0c2.4 2.4 2.5 4.7.3 7.2-3.3 3.6-9.3 1.3-9.3-3.7 0-2.4 3.3-5.5 5.7-5.5.7 0 2.2.9 3.3 2zm-75.1 9.6c2.6 3.4 2.7 6.8.1 9.4-4.3 4.3-12 1.4-12-4.6 0-6.9 7.8-10.1 11.9-4.8zm65.8-.4c4.6 4.3 1.6 11.8-4.7 11.8-6.2 0-9.2-7.1-4.8-11.7 2.7-2.9 6.5-2.9 9.5-.1zm-54.3 9.8c5.8 2.2 6.9 11 1.9 15-3.5 2.7-7.5 2.5-11.2-.6-4.2-3.5-4.3-8.4-.2-12.5 3.1-3.1 5.3-3.5 9.5-1.9zm43.4 2.6c1.2 1.4 2.2 3.8 2.2 5.5 0 4.2-4.8 8.9-9 8.9-4.1 0-9-4.7-9-8.7 0-8.3 10.2-12 15.8-5.7zm-23.9 23.8c.9 1.1 1 2 .1 3.6-1.3 2.5-4.7 2.4-6.3-.2-2.2-3.4 3.6-6.6 6.2-3.4zm-20 13.7c3.2 1.1 6.1 5.2 6.1 8.8 0 1.1-1.2 3.3-2.6 5-6.8 8.1-19.3-.7-14.3-10 .8-1.6 3.3-3.2 7.5-4.9.1 0 1.5.5 3.3 1.1zm40.6.3c9 3.8 6.3 16.6-3.5 16.6-3 0-4.4-.6-6.4-3.1-1.4-1.7-2.6-3.9-2.6-4.9 0-3.5 2.4-7.3 5.5-8.6 3.7-1.6 3-1.6 7 0zm-52 16.1c6.3 6.3-1.8 16-8.8 10.5-3.7-2.9-3.7-8-.1-10.9 3.5-2.7 5.9-2.6 8.9.4zm65.9-.4c3.6 2.9 3.6 8-.1 10.9-4.7 3.7-11.3.2-11.3-6 0-3.1 3.9-7 7-7 1 0 2.9.9 4.4 2.1zM89 172c2.4 2.4 2.5 4.7.3 7.2-2 2.2-5.1 2.3-7.5.1-2.5-2.2-2.3-5.9.4-7.7 3-2.1 4.4-2 6.8.4zm86.8-.4c2.6 1.8 2.8 5 .5 7.6-3.3 3.6-9.3 1.3-9.3-3.7 0-2.3 3.2-5.5 5.5-5.5.6 0 2.1.7 3.3 1.6zm-96 9.6c3 3-.4 7.7-4.1 5.7-2.9-1.7-1.5-6.9 1.8-6.9.6 0 1.6.5 2.3 1.2zm103 0c3 3-.4 7.7-4.1 5.7-2.9-1.7-1.5-6.9 1.8-6.9.6 0 1.6.5 2.3 1.2zm-109.5 7.5c.9.9-1.3 3.4-2.4 2.7-1.4-.8-1.1-3.4.4-3.4.8 0 1.7.3 2 .7zm114.7.7c0 2.1-2.1 3.1-3 1.5-.5-.7-.6-1.7-.4-2.1.9-1.4 3.4-.9 3.4.6z"/></svg>