<svg id="Camada_1" data-name="Camada 1" xmlns="http://www.w3.org/2000/svg" viewBox="0 0 327.48 134.95"><defs><style>.cls-1{fill:#706f6f}.cls-2{fill:#ec681c}.cls-3{fill:#fff}</style></defs><title>Prancheta 1</title><path class="cls-1" d="M22.85 131.49c0 1.73-1.25 2.8-2.9 3.27a11.71 11.71 0 0 1-5.13 0c-1.7-.44-3-1.54-3.06-3.27V120c0-1.91 1.62-3 3.53-3.4a11.4 11.4 0 0 1 4.89.21 3.41 3.41 0 0 1 2.67 3.19h-1.3a2.2 2.2 0 0 0-1.75-2 9.75 9.75 0 0 0-4.26-.16c-1.33.26-2.46 1-2.46 2.12v11.48c0 1 .92 1.7 2.09 2a10.09 10.09 0 0 0 4.42 0c1.12-.31 2-1 2-2zM33.14 119.93c0-4.68 11-4.68 11 0v11.67c0 4.76-11 4.76-11 0zm9.7 11.53v-11.53c0-3.09-8.42-3.09-8.42 0v11.53a1.86 1.86 0 0 0 .08.68c.78 2.28 7.43 2.28 8.21 0a1.86 1.86 0 0 0 .13-.67zM67.45 116.64h1.62v18.31h-1.33v-14.68l.18-1.86h-.08l-.55 1.75-4.87 10.38h-1.06l-4.86-10.38-.55-1.75h-.08l.18 1.86v14.67h-1.34v-18.3h1.62l5.54 12.19zM85.45 133.8a6.36 6.36 0 0 0 3.11-.58 1.94 1.94 0 0 0 1-1.7v-14.88h1.31v14.88a3.18 3.18 0 0 1-1.65 2.77 7.37 7.37 0 0 1-3.77.81h-.26a7.38 7.38 0 0 1-3.77-.81 3.18 3.18 0 0 1-1.65-2.77v-14.88h1.31v14.88a1.86 1.86 0 0 0 1 1.65 5.87 5.87 0 0 0 2.93.63zM112.52 134.95h-1.39l-7.87-14.78-.65-1.75h-.1l.24 1.86v14.67h-1.31v-18.31h1.41l7.87 14.78.65 1.73h.08l-.24-1.86v-14.65h1.31zM124.79 116.61v18.33h-1.31v-18.33zM146.76 131.49c0 1.73-1.25 2.8-2.9 3.27a11.71 11.71 0 0 1-5.13 0c-1.7-.44-3-1.54-3.06-3.27V120c0-1.91 1.62-3 3.53-3.4a11.4 11.4 0 0 1 4.89.21 3.41 3.41 0 0 1 2.67 3.19h-1.31a2.2 2.2 0 0 0-1.75-2 9.75 9.75 0 0 0-4.26-.16c-1.33.26-2.46 1-2.46 2.12v11.48c0 1 .92 1.7 2.09 2a10.09 10.09 0 0 0 4.42 0c1.12-.31 2-1 2-2zM168.08 120v15h-1.28v-7.17h-8.47V135H157v-15a3.07 3.07 0 0 1 1.62-2.69 9.28 9.28 0 0 1 7.82 0 3.07 3.07 0 0 1 1.64 2.69zm-9.76 0v6.49h8.47V120a1.89 1.89 0 0 0-1-1.6 8.05 8.05 0 0 0-6.46 0 1.87 1.87 0 0 0-1.01 1.6zM183.35 136.46l.63-1.41a9.51 9.51 0 0 1-2.09-.26c-1.7-.44-3-1.54-3.06-3.27V120c0-1.91 1.62-3 3.53-3.4a11.4 11.4 0 0 1 4.89.21 3.41 3.41 0 0 1 2.67 3.19h-1.31a2.2 2.2 0 0 0-1.75-2 9.75 9.75 0 0 0-4.26-.16c-1.33.26-2.46 1-2.46 2.12v11.48c0 1 .92 1.7 2.09 2a10.09 10.09 0 0 0 4.42 0c1.12-.31 2-1 2-2h1.31c0 1.73-1.25 2.8-2.9 3.27a9.19 9.19 0 0 1-2 .29l-.34.81c1.75-.08 2.46.86 2.43 1.65-.08 1.91-3.48 2.41-4.5.94l.73-.63c.63.68 2.46.58 2.46-.37s-1.7-.81-2.41-.84zM211.24 120v15H210v-7.17h-8.47V135h-1.31v-15a3.07 3.07 0 0 1 1.62-2.69 9.28 9.28 0 0 1 7.82 0 3.07 3.07 0 0 1 1.58 2.69zm-9.76 0v6.49H210V120a1.89 1.89 0 0 0-1-1.6 8.05 8.05 0 0 0-6.46 0 1.87 1.87 0 0 0-1.06 1.6zm1.78-4.89a1.87 1.87 0 0 1 1.54-1.44c1-.1 1.54.84 2 .79a.64.64 0 0 0 .6-.58l.81.34a1.45 1.45 0 0 1-1.39 1.23c-.92.05-1.36-.84-2-.81a1 1 0 0 0-.84.73zM222 119.93c0-4.68 11-4.68 11 0v11.67c0 4.76-11 4.76-11 0zm9.7 11.53v-11.53c0-3.09-8.42-3.09-8.42 0v11.53a1.86 1.86 0 0 0 .08.68c.78 2.28 7.43 2.28 8.21 0a1.86 1.86 0 0 0 .15-.67zM267.53 122.92a3.24 3.24 0 0 1-1.91 2.88 3.17 3.17 0 0 1 1.91 2.85v2.77c0 2.43-2.62 3.5-4.73 3.53h-5.44v-1.33H262.77c1.36 0 3.43-.63 3.43-2.2v-2.77c0-1.57-2.07-2.28-3.43-2.28h-5.41v-1.15h5.41c1.36 0 3.43-.73 3.43-2.3v-2.77c0-1.57-2.07-2.2-3.43-2.2h-5.41v-1.33h5.44c2.12 0 4.73 1.07 4.73 3.5zM280.89 134.84c-1.7-.44-3-1.54-3.06-3.27v-11.51c0-2 1.73-3.11 3.53-3.45a11.32 11.32 0 0 1 4.68.16c1.54.44 2.88 1.52 2.85 3.27h-1.28c0-1.1-1-1.73-2-2a9.63 9.63 0 0 0-4.05-.1c-1.15.21-2.46.84-2.46 2.17v5h4.55a9.08 9.08 0 0 1 1.67.16c1.75.31 3.53 1.41 3.53 3.43v2.8c0 1.78-1.26 2.85-2.9 3.32a11.57 11.57 0 0 1-5.06.02zm-1.75-8.42v5.15c0 1 .94 1.7 2.12 2a10.08 10.08 0 0 0 4.42 0c1-.29 2-.92 2-2v-2.83c0-1.33-1.36-2-2.46-2.17a8.49 8.49 0 0 0-1.39-.1zM299.23 119.91c0-4.68 11-4.68 11 0v11.66c0 4.76-11 4.76-11 0zm1.67-1a1.71 1.71 0 0 0-.34 1v11.56a2.76 2.76 0 0 0 .08.65c.6 1.75 4.63 2.14 6.85 1.23zm8.06 1c0-2.28-4.58-2.88-7-1.8l6.62 14.51a1.62 1.62 0 0 0 .34-1.15zM321.67 119.61a2.41 2.41 0 0 1-1.87 2.26 5.36 5.36 0 0 1-2.48.17c-1.39-.24-2.57-1-2.57-2.42v-4.29a2.47 2.47 0 0 1 2.11-2.31 4.77 4.77 0 0 1 1.35-.18 4.69 4.69 0 0 1 1.35.18 2.47 2.47 0 0 1 2.11 2.31zm-.92 0v-4.29c0-.72-.63-1.2-1.42-1.42a4.25 4.25 0 0 0-2.22 0c-.79.22-1.42.68-1.42 1.42v4.29c0 .83.83 1.37 1.79 1.54a4.19 4.19 0 0 0 2-.15 1.57 1.57 0 0 0 1.27-1.39z"/><path class="cls-2" d="M55 21a16.57 16.57 0 0 0-12.81 6.05A16.57 16.57 0 0 0 16.6 27a16.57 16.57 0 0 0-12.77-6 3.83 3.83 0 1 0 0 7.66 9 9 0 0 1 8.94 8.94v38.3a3.83 3.83 0 1 0 7.66 0V37.6a8.94 8.94 0 1 1 17.87 0v38.3a3.83 3.83 0 0 0 3.83 3.83h.08A3.83 3.83 0 0 0 46 75.9V37.6a8.94 8.94 0 1 1 17.87 0v38.3a3.83 3.83 0 1 0 7.66 0V37.6A16.61 16.61 0 0 0 55 21zM93.19 21a16.61 16.61 0 0 0-16.6 16.6v38.3a3.83 3.83 0 1 0 7.66 0V67h17.87v8.9a3.83 3.83 0 1 0 7.66 0V37.6A16.61 16.61 0 0 0 93.19 21zm-8.94 38.3V37.6a8.94 8.94 0 1 1 17.87 0v21.7zM131.49 28.67a9 9 0 0 1 8.94 8.94 3.83 3.83 0 0 0 7.66 0 16.6 16.6 0 0 0-33.19 0v25.52a16.6 16.6 0 0 0 33.19 0 3.83 3.83 0 0 0-1.09-2.71l-12.81-12.76a3.83 3.83 0 0 0-5.42 5.42L140.3 64.6a8.94 8.94 0 0 1-17.75-1.47V37.6a9 9 0 0 1 8.94-8.93zM178.55 21a16.57 16.57 0 0 0-12.81 6.05A16.57 16.57 0 0 0 152.93 21a3.83 3.83 0 0 0 0 7.66 9 9 0 0 1 8.94 8.94v38.3a3.83 3.83 0 0 0 3.83 3.83h.08a3.83 3.83 0 0 0 3.83-3.83V37.6a8.94 8.94 0 0 1 17.87 0v38.3a3.83 3.83 0 1 0 7.66 0V37.6A16.61 16.61 0 0 0 178.55 21zM216.76 79.73a16.61 16.61 0 0 0 16.6-16.6 3.83 3.83 0 1 0-7.66 0 8.94 8.94 0 1 1-17.87 0V37.6a8.94 8.94 0 0 1 17.75-1.47l-11.53 11.53a3.83 3.83 0 0 0 5.42 5.42l12.77-12.77a3.83 3.83 0 0 0 1.12-2.71 16.6 16.6 0 1 0-33.19 0v25.53a16.61 16.61 0 0 0 16.59 16.6z"/><path class="cls-2" d="M291.8 51.24a9.32 9.32 0 0 0-1.46-1.24 9.32 9.32 0 0 0 1.47-1.19l33-33A9.31 9.31 0 0 0 318.17 0a9.25 9.25 0 0 0-6.59 2.72l-33 33a9.32 9.32 0 0 0-1.22 1.5 9.33 9.33 0 0 0-1.22-1.5l-33-33a9.32 9.32 0 0 0-13.08 13.18l33 33a9.32 9.32 0 0 0 1.42 1.1 9.35 9.35 0 0 0-1.48 1.24l-33 33a9.32 9.32 0 0 0 13.18 13.18l33-33a9.3 9.3 0 0 0 1.22-1.5 9.36 9.36 0 0 0 1.22 1.5l33 33a9.32 9.32 0 0 0 13.18-13.18z"/><path class="cls-3" d="M292.84 38.61a2.82 2.82 0 1 0-4 0 2.82 2.82 0 0 0 4 0zm-4.77 5.77a3.53 3.53 0 1 0-5 0 3.53 3.53 0 0 0 5 0zm9.28-16.26a1.41 1.41 0 1 0 2 0 1.41 1.41 0 0 0-2.01-.01zm-.79 5.78a2.12 2.12 0 1 0-3 0 2.12 2.12 0 0 0 3-.01zm4.61-6.61a.71.71 0 1 0-1 0 .71.71 0 0 0 1-.01zm-42.91 6.61a2.12 2.12 0 1 0 0-3 2.12 2.12 0 0 0 0 2.99zm-.79-3.78a1.41 1.41 0 1 0-2 0 1.41 1.41 0 0 0 2-.01zm-3.83-3.83a.71.71 0 1 0 1 0 .71.71 0 0 0-1-.01zm13.1 13.1a3.53 3.53 0 1 0 5 0 3.53 3.53 0 0 0-4.99 0zm-4.74-.78a2.82 2.82 0 1 0 0-4 2.82 2.82 0 0 0 0 4zm-8.33 34.2a.71.71 0 1 0 1 0 .71.71 0 0 0-1.03 0zm4.61-6.61a2.12 2.12 0 1 0 3 0 2.12 2.12 0 0 0-3.02 0zm8.49-10.48a3.53 3.53 0 1 0 5 0 3.53 3.53 0 0 0-5.02 0zM255.47 70a1.41 1.41 0 1 0 2 0 1.41 1.41 0 0 0-2 0zm6.5-8.5a2.82 2.82 0 1 0 4 0 2.82 2.82 0 0 0-3.97-.01zm34.58 4.71a2.12 2.12 0 1 0 0 3 2.12 2.12 0 0 0 .01-3.01zm3.62 6.61a.71.71 0 1 0 1 0 .71.71 0 0 0-1-.01zM297.34 70a1.41 1.41 0 1 0 2 0 1.41 1.41 0 0 0-2 0zm-4.5-8.5a2.82 2.82 0 1 0 0 4 2.82 2.82 0 0 0 0-4.01zm-4.77-5.77a3.53 3.53 0 1 0 0 5 3.53 3.53 0 0 0 0-5.01z"/><circle class="cls-3" cx="277.41" cy="50.05" r="1.41" transform="rotate(-45 277.412 50.052)"/></svg>