<svg id="Camada_1" xmlns="http://www.w3.org/2000/svg" viewBox="0 0 328.5 140.2"><style>.st0{fill:#fff}.st1{fill:#ec681c}</style><path class="st0" d="M23.9 132c0 1.7-1.2 2.8-2.9 3.3-1.7.4-3.4.4-5.1 0-1.7-.4-3-1.5-3.1-3.3v-11.5c0-1.9 1.6-3 3.5-3.4 1.6-.3 3.3-.2 4.9.2 1.5.3 2.6 1.6 2.7 3.2h-1.3c-.1-1-.8-1.8-1.8-2-1.4-.4-2.8-.4-4.3-.2-1.3.3-2.5 1-2.5 2.1v11.5c0 1 .9 1.7 2.1 2 1.5.3 3 .3 4.4 0 1.1-.3 2-1 2-2l1.4.1zm10.2-11.6c0-4.7 11-4.7 11 0v11.7c0 4.8-11 4.8-11 0v-11.7zm9.7 11.6v-11.5c0-3.1-8.4-3.1-8.4 0V132c0 .2 0 .5.1.7.8 2.3 7.4 2.3 8.2 0 .1-.3.1-.5.1-.7zm24.6-14.9H70v18.3h-1.3v-14.7l.2-1.9h-.1l-.6 1.8-4.8 10.4h-1.1l-4.9-10.4-.5-1.8h-.1l.2 1.9v14.7h-1.3v-18.3h1.6l5.5 12.2 5.6-12.2zm18 17.2c1.1.1 2.1-.1 3.1-.6.6-.3 1-1 1-1.7v-14.9h1.3V132c0 1.2-.6 2.2-1.7 2.8-1.2.6-2.5.9-3.8.8H86c-1.3.1-2.6-.2-3.8-.8-1-.6-1.6-1.6-1.7-2.8v-14.9h1.3V132c0 .7.4 1.3 1 1.6.9.5 1.9.7 2.9.6h.7zm27.1 1.1h-1.4l-7.9-14.8-.7-1.8h-.1l.2 1.9v14.7h-1.3v-18.3h1.4l7.9 14.8.7 1.7h.1l-.2-1.9V117h1.3v18.4zm12.3-18.3v18.3h-1.3v-18.3h1.3zm22 14.9c0 1.7-1.2 2.8-2.9 3.3-1.7.4-3.4.4-5.1 0-1.7-.4-3-1.5-3.1-3.3v-11.5c0-1.9 1.6-3 3.5-3.4 1.6-.3 3.3-.2 4.9.2 1.5.3 2.6 1.6 2.7 3.2h-1.3c-.1-1-.8-1.8-1.8-2-1.4-.4-2.8-.4-4.3-.2-1.3.3-2.5 1-2.5 2.1v11.5c0 1 .9 1.7 2.1 2 1.5.3 3 .3 4.4 0 1.1-.3 2-1 2-2l1.4.1zm21.3-11.5v15h-1.3v-7.2h-8.5v7.2H158v-15c0-1.1.6-2.2 1.6-2.7a8.9 8.9 0 0 1 7.8 0c1 .5 1.7 1.6 1.7 2.7zm-9.8 0v6.5h8.5v-6.5c0-.7-.4-1.3-1-1.6-2.1-.9-4.4-.9-6.5 0-.6.3-1 .9-1 1.6zm25.1 16.5l.6-1.4c-.7 0-1.4-.1-2.1-.3-1.7-.4-3-1.5-3.1-3.3v-11.5c0-1.9 1.6-3 3.5-3.4 1.6-.3 3.3-.2 4.9.2 1.5.3 2.6 1.6 2.7 3.2h-1.3c-.1-1-.8-1.8-1.8-2-1.4-.4-2.8-.4-4.3-.2-1.3.3-2.5 1-2.5 2.1v11.5c0 1 .9 1.7 2.1 2 1.5.3 3 .3 4.4 0 1.1-.3 2-1 2-2h1.3c0 1.7-1.2 2.8-2.9 3.3-.7.2-1.3.3-2 .3l-.3.8c1.8-.1 2.5.9 2.4 1.6-.1 1.9-3.5 2.4-4.5.9l.7-.6c.6.7 2.5.6 2.5-.4s-1.6-.7-2.3-.8zm27.8-16.5v15H211v-7.2h-8.5v7.2h-1.3v-15c0-1.1.6-2.2 1.6-2.7a8.9 8.9 0 0 1 7.8 0c1 .6 1.6 1.6 1.6 2.7zm-9.7 0v6.5h8.5v-6.5c0-.7-.4-1.3-1-1.6-2.1-.9-4.4-.9-6.5 0-.6.3-1 .9-1 1.6zm1.8-4.9c.2-.8.8-1.3 1.5-1.4 1-.1 1.5.8 2 .8.3 0 .6-.3.6-.6l.8.3c-.1.7-.7 1.2-1.4 1.2-.9.1-1.4-.8-2-.8-.4.1-.7.3-.8.7l-.7-.2zm18.7 4.8c0-4.7 11-4.7 11 0v11.7c0 4.8-11 4.8-11 0v-11.7zm9.7 11.6v-11.5c0-3.1-8.4-3.1-8.4 0V132c0 .2 0 .5.1.7.8 2.3 7.4 2.3 8.2 0 .1-.3.1-.5.1-.7zm35.8-8.6c0 1.2-.8 2.4-1.9 2.9 1.1.5 1.9 1.6 1.9 2.8v2.8c0 2.4-2.6 3.5-4.7 3.5h-5.4v-1.3h5.4c1.4 0 3.4-.6 3.4-2.2v-2.8c0-1.6-2.1-2.3-3.4-2.3h-5.4v-1.2h5.4c1.4 0 3.4-.7 3.4-2.3v-2.8c0-1.6-2.1-2.2-3.4-2.2h-5.4V117h5.4c2.1 0 4.7 1.1 4.7 3.5v2.9zm13.4 11.9c-1.7-.4-3-1.5-3.1-3.3v-11.5c0-2 1.7-3.1 3.5-3.4 1.6-.3 3.1-.2 4.7.2 1.5.4 2.9 1.5 2.9 3.3h-1.3c0-1.1-1-1.7-2-2-1.3-.3-2.7-.4-4-.1-1.1.2-2.5.8-2.5 2.2v5h4.5c.6 0 1.1.1 1.7.2 1.8.3 3.5 1.4 3.5 3.4v2.8c0 1.8-1.3 2.9-2.9 3.3-1.6.3-3.3.3-5-.1zm-1.8-8.4v5.1c0 1 .9 1.7 2.1 2 1.5.3 3 .3 4.4 0 1-.3 2-.9 2-2v-2.8c0-1.3-1.4-2-2.5-2.2-.5-.1-.9-.1-1.4-.1h-4.6zm20.1-6.5c0-4.7 11-4.7 11 0v11.7c0 4.8-11 4.8-11 0v-11.7zm1.7-1c-.2.3-.3.6-.3 1V132c0 .2 0 .4.1.6.6 1.8 4.6 2.1 6.9 1.2l-6.7-14.4zm8.1 1c0-2.3-4.6-2.9-7-1.8l6.6 14.5c.3-.3.4-.7.3-1.1l.1-11.6zm12.7-.3c0 1.1-.8 2-1.9 2.3-.8.3-1.7.3-2.5.2-1.4-.2-2.6-1-2.6-2.4v-4.3c.1-1.2.9-2.1 2.1-2.3.4-.1.9-.2 1.4-.2.5 0 .9.1 1.4.2 1.2.2 2 1.1 2.1 2.3v4.2zm-.9 0v-4.3c0-.7-.6-1.2-1.4-1.4-.7-.2-1.5-.2-2.2 0-.8.2-1.4.7-1.4 1.4v4.3c0 .8.8 1.4 1.8 1.5.7.1 1.4.1 2-.2.6 0 1.1-.6 1.2-1.3z"/><path class="st1" d="M56 21.5c-5 0-9.7 2.2-12.8 6-5.8-7.1-16.2-8.1-23.3-2.3-.8.7-1.6 1.4-2.3 2.3-3.1-3.8-7.8-6-12.8-6-2.1 0-3.8 1.7-3.8 3.8s1.7 3.8 3.8 3.8c4.9 0 8.9 4 8.9 8.9v38.3c0 2.1 1.7 3.8 3.8 3.8s3.8-1.7 3.8-3.8V38.1c-.2-4.9 3.7-9.1 8.6-9.2 4.9-.2 9.1 3.7 9.2 8.6v38.9c0 2.1 1.7 3.8 3.8 3.8h.1c2.1 0 3.8-1.7 3.8-3.8V38.1c-.2-4.9 3.7-9.1 8.6-9.2 4.9-.2 9.1 3.7 9.2 8.6v38.9c0 2.1 1.7 3.8 3.8 3.8 2.1 0 3.8-1.7 3.8-3.8V38.1c.3-9.1-7.1-16.6-16.2-16.6zm38.2 0c-9.2 0-16.6 7.4-16.6 16.6v38.3c0 2.1 1.7 3.8 3.8 3.8 2.1 0 3.8-1.7 3.8-3.8v-8.9h17.9v8.9c0 2.1 1.7 3.8 3.8 3.8 2.1 0 3.8-1.7 3.8-3.8V38.1c.1-9.2-7.3-16.6-16.5-16.6zm-9 38.3V38.1c-.2-4.9 3.7-9.1 8.6-9.2 4.9-.2 9.1 3.7 9.2 8.6v22.3H85.2zm47.3-30.6c4.9 0 8.9 4 8.9 8.9 0 2.1 1.7 3.8 3.8 3.8s3.8-1.7 3.8-3.8c-.2-9.2-7.8-16.4-17-16.2-8.8.2-16 7.3-16.2 16.2v25.5c.2 9.2 7.8 16.4 17 16.2 8.8-.2 16-7.3 16.2-16.2 0-1-.4-2-1.1-2.7l-12.8-12.8c-1.5-1.5-3.9-1.5-5.4 0s-1.5 3.9 0 5.4L141.2 65c-.8 4.9-5.5 8.1-10.3 7.3-4.3-.7-7.4-4.4-7.4-8.8V38.1c.1-4.9 4.1-8.9 9-8.9zm47.1-7.7c-5 0-9.7 2.2-12.8 6-3.1-3.8-7.8-6.1-12.8-6-2.1 0-3.8 1.7-3.8 3.8 0 2.1 1.7 3.8 3.8 3.8 4.9 0 8.9 4 8.9 8.9v38.3c0 2.1 1.7 3.8 3.8 3.8h.1c2.1 0 3.8-1.7 3.8-3.8V38.1c.2-4.9 4.3-8.8 9.2-8.6 4.7.2 8.5 3.9 8.6 8.6v38.3c0 2.1 1.7 3.8 3.8 3.8s3.8-1.7 3.8-3.8V38.1c.1-9.2-7.3-16.6-16.4-16.6zm38.2 58.7c9.2 0 16.6-7.4 16.6-16.6 0-2.1-1.7-3.8-3.8-3.8s-3.8 1.7-3.8 3.8c.2 4.9-3.7 9.1-8.6 9.2-4.9.2-9.1-3.7-9.2-8.6V38.1c0-4.9 4.1-8.9 9-8.9 4.3 0 8 3.2 8.8 7.4l-11.5 11.5c-1.5 1.5-1.5 3.9 0 5.4s3.9 1.5 5.4 0l12.8-12.8c.7-.7 1.1-1.7 1.1-2.7.2-9.2-7-16.8-16.2-17s-16.8 7-17 16.2v26.3c-.2 9.3 7.2 16.7 16.4 16.7z"/><path class="st1" d="M292.8 51.7c-.4-.5-.9-.9-1.5-1.2.5-.3 1-.7 1.5-1.2l33-33c3.6-3.7 3.5-9.6-.2-13.2-1.7-1.7-4.1-2.6-6.5-2.6-2.5 0-4.8 1-6.6 2.7l-33 33c-.5.5-.9 1-1.2 1.5l-1.2-1.5-33-33c-4-3.3-9.8-2.8-13.1 1.2-2.9 3.5-2.9 8.5 0 12l33 33c.4.4.9.8 1.4 1.1l-1.5 1.2-33 33c-3.6 3.7-3.6 9.6.1 13.2 3.6 3.6 9.4 3.6 13.1 0l33-33c.5-.5.9-1 1.2-1.5l1.2 1.5 33 33c3.7 3.6 9.6 3.6 13.2-.1 3.6-3.6 3.6-9.4 0-13.1l-32.9-33z"/><path class="st0" d="M293.8 39.1c1.1-1.1 1.1-2.9 0-4s-2.9-1.1-4 0-1.1 2.9 0 4 2.9 1.1 4 0zm-4.7 5.8c1.4-1.4 1.4-3.6 0-5s-3.6-1.4-5 0-1.4 3.6 0 5c1.3 1.4 3.6 1.4 5 0zm9.3-16.3c-.5.6-.5 1.4 0 2 .6.5 1.4.5 2 0 .5-.5.5-1.4 0-2-.6-.5-1.5-.5-2 0 0 0-.1 0 0 0zm-.8 5.8c.8-.8.8-2.2 0-3s-2.2-.8-3 0c-.8.8-.8 2.2 0 3 .8.8 2.1.8 3 0zm4.6-6.6c.3-.3.3-.7 0-1-.3-.3-.7-.3-1 0s-.3.7 0 1c.2.3.7.3 1 0zm-42.9 6.6c.8.8 2.2.8 3 0 .8-.8.8-2.2 0-3-.8-.8-2.2-.8-3 0-.9.8-.9 2.2 0 3zm-.8-3.8c.5-.6.5-1.4 0-2-.6-.5-1.4-.5-2 0-.5.5-.5 1.4 0 2 .5.6 1.4.6 2 0zm-3.9-3.8c-.3.3-.3.7 0 1 .3.3.7.3 1 0s.3-.7 0-1c-.2-.3-.7-.3-1 0zm13.1 13.1c-1.4 1.4-1.4 3.6 0 5s3.6 1.4 5 0 1.4-3.6 0-5c-1.3-1.4-3.6-1.4-5 0zm-4.7-.8c1.1 1.1 2.9 1.1 4 0s1.1-2.9 0-4-2.9-1.1-4 0-1.1 2.9 0 4zm-8.3 34.2c-.3.3-.3.7 0 1 .3.3.7.3 1 0 .3-.3.3-.7 0-1-.3-.3-.7-.3-1 0 0 0-.1 0 0 0zm4.6-6.6c-.8.8-.8 2.2 0 3 .8.8 2.2.8 3 0 .8-.8.8-2.2 0-3-.8-.8-2.2-.8-3 0zm8.5-10.5c-1.4 1.4-1.4 3.6 0 5s3.6 1.4 5 0 1.4-3.6 0-5-3.6-1.4-5 0zm-11.3 14.3c-.5.6-.5 1.4 0 2 .6.5 1.4.5 2 0 .5-.5.5-1.4 0-2-.6-.6-1.5-.6-2 0zM263 62c-1.1 1.1-1.1 2.9 0 4s2.9 1.1 4 0 1.1-2.9 0-4-2.9-1.1-4 0zm34.5 4.7c-.8-.8-2.2-.8-3 0-.8.8-.8 2.2 0 3 .8.8 2.2.8 3 0 .9-.8.9-2.2 0-3 .1 0 .1 0 0 0zm3.7 6.6c-.3.3-.3.7 0 1 .3.3.7.3 1 0 .3-.3.3-.7 0-1-.3-.3-.8-.3-1 0zm-2.9-2.8c-.5.6-.5 1.4 0 2 .6.5 1.4.5 2 0 .5-.5.5-1.4 0-2-.5-.6-1.4-.6-2 0zm-4.5-8.5c-1.1-1.1-2.9-1.1-4 0s-1.1 2.9 0 4 2.9 1.1 4 0 1.2-2.9 0-4c.1 0 0 0 0 0zm-4.7-5.8c-1.4-1.4-3.6-1.4-5 0s-1.4 3.6 0 5 3.6 1.4 5 0c1.4-1.3 1.4-3.6 0-5z"/><circle class="st0" cx="278.4" cy="50.6" r="1.4"/></svg>