<svg id="Layer_1" data-name="Layer 1" xmlns="http://www.w3.org/2000/svg" viewBox="0 0 48 48"><defs><style>.cls-1{opacity:.19;isolation:isolate}.cls-2{fill:#eb671b}.cls-3{fill:#fff}</style></defs><title>Prancheta 1</title><ellipse class="cls-1" cx="23.5" cy="44.7" rx="10.4" ry="3.3"/><path class="cls-2" d="M23.5 0a16.88 16.88 0 0 0-17 16.8c0 9.3 17 28 17 28s17-18.7 17-28A16.88 16.88 0 0 0 23.5 0z"/><path class="cls-3" d="M27 17.75a2.24 2.24 0 0 0-.35-.29 2.24 2.24 0 0 0 .35-.29l7.9-7.9a2.24 2.24 0 0 0-3.16-3.16L23.79 14a2.23 2.23 0 0 0-.29.36 2.24 2.24 0 0 0-.29-.36l-7.9-7.9a2.24 2.24 0 0 0-3.16 3.16l7.9 7.9a2.24 2.24 0 0 0 .35.29 2.24 2.24 0 0 0-.35.29l-7.9 7.9a2.24 2.24 0 0 0 3.16 3.16l7.9-7.9a2.23 2.23 0 0 0 .29-.36 2.24 2.24 0 0 0 .29.36l7.9 7.9a2.24 2.24 0 0 0 3.16-3.16z"/><path class="cls-2" d="M27.2 14.72a.68.68 0 1 0-1 0 .68.68 0 0 0 1 0zm-1.14 1.38a.85.85 0 1 0-1.2 0 .85.85 0 0 0 1.2.01zm2.22-3.9a.34.34 0 1 0 .48 0 .34.34 0 0 0-.48.01zm-.19 1.39a.51.51 0 1 0-.72 0 .51.51 0 0 0 .72 0zM29.2 12a.17.17 0 1 0-.2 0 .17.17 0 0 0 .2 0zm-10.29 1.59a.51.51 0 1 0 0-.72.51.51 0 0 0 0 .72zm-.19-.91a.34.34 0 1 0-.48 0 .34.34 0 0 0 .48 0zm-.92-.92a.17.17 0 1 0 .24 0 .17.17 0 0 0-.24.01zm3.14 3.14a.85.85 0 1 0 1.2 0 .85.85 0 0 0-1.2.01zm-1.14-.19a.68.68 0 1 0 0-1 .68.68 0 0 0 0 1.01zm-2 8.2a.17.17 0 1 0 .24 0 .17.17 0 0 0-.24.02zm1.11-1.59a.51.51 0 1 0 .72 0 .51.51 0 0 0-.72.02zm2-2.51a.85.85 0 1 0 1.2 0 .85.85 0 0 0-1.17.02zm-2.7 3.42a.34.34 0 1 0 .48 0 .34.34 0 0 0-.45.02zm1.56-2a.68.68 0 1 0 1 0 .68.68 0 0 0-.97-.02zm8.29 1.13a.51.51 0 1 0 0 .72.51.51 0 0 0 .03-.74zm.94 1.57a.17.17 0 1 0 .24 0 .17.17 0 0 0-.24 0zm-.68-.68a.34.34 0 1 0 .48 0 .34.34 0 0 0-.52 0zm-1.08-2a.68.68 0 1 0 0 1 .68.68 0 0 0-.04-1.04zm-1.14-1.38a.85.85 0 1 0 0 1.2.85.85 0 0 0-.04-1.24z"/><circle class="cls-3" cx="23.5" cy="17.47" r=".34" transform="rotate(-45 23.495 17.468)"/></svg>